<mxfile host="app.diagrams.net" agent="Mozilla/5.0 (Windows NT 10.0; Win64; x64) AppleWebKit/537.36 (KHTML, like Gecko) Chrome/136.0.0.0 Safari/537.36" version="26.2.14">
  <diagram name="PÃ¡gina-1" id="UuG9KRpdaGVq4jJBNa9j">
    <mxGraphModel dx="1737" dy="2106" grid="1" gridSize="10" guides="1" tooltips="1" connect="1" arrows="1" fold="1" page="1" pageScale="1" pageWidth="827" pageHeight="1169" math="0" shadow="0">
      <root>
        <mxCell id="0" />
        <mxCell id="1" parent="0" />
        <mxCell id="Wn_u3qL0JxrJ-TsmloJQ-10" value="" style="rounded=0;whiteSpace=wrap;html=1;" vertex="1" parent="1">
          <mxGeometry x="190" y="-50" width="570" height="810" as="geometry" />
        </mxCell>
        <mxCell id="Wn_u3qL0JxrJ-TsmloJQ-13" style="edgeStyle=orthogonalEdgeStyle;rounded=0;orthogonalLoop=1;jettySize=auto;html=1;" edge="1" parent="1" source="Wn_u3qL0JxrJ-TsmloJQ-1" target="Wn_u3qL0JxrJ-TsmloJQ-6">
          <mxGeometry relative="1" as="geometry" />
        </mxCell>
        <mxCell id="Wn_u3qL0JxrJ-TsmloJQ-1" value="Administrador" style="shape=umlActor;verticalLabelPosition=bottom;verticalAlign=top;html=1;outlineConnect=0;" vertex="1" parent="1">
          <mxGeometry x="120" y="90" width="30" height="60" as="geometry" />
        </mxCell>
        <mxCell id="Wn_u3qL0JxrJ-TsmloJQ-16" style="edgeStyle=orthogonalEdgeStyle;rounded=0;orthogonalLoop=1;jettySize=auto;html=1;entryX=0;entryY=0.5;entryDx=0;entryDy=0;dashed=1;dashPattern=8 8;" edge="1" parent="1" source="Wn_u3qL0JxrJ-TsmloJQ-6" target="Wn_u3qL0JxrJ-TsmloJQ-14">
          <mxGeometry relative="1" as="geometry" />
        </mxCell>
        <mxCell id="Wn_u3qL0JxrJ-TsmloJQ-17" value="Extend" style="edgeLabel;html=1;align=center;verticalAlign=middle;resizable=0;points=[];" vertex="1" connectable="0" parent="Wn_u3qL0JxrJ-TsmloJQ-16">
          <mxGeometry x="0.4062" relative="1" as="geometry">
            <mxPoint as="offset" />
          </mxGeometry>
        </mxCell>
        <mxCell id="Wn_u3qL0JxrJ-TsmloJQ-24" value="" style="edgeStyle=orthogonalEdgeStyle;rounded=0;orthogonalLoop=1;jettySize=auto;html=1;dashed=1;dashPattern=8 8;" edge="1" parent="1" source="Wn_u3qL0JxrJ-TsmloJQ-6" target="Wn_u3qL0JxrJ-TsmloJQ-23">
          <mxGeometry relative="1" as="geometry" />
        </mxCell>
        <mxCell id="Wn_u3qL0JxrJ-TsmloJQ-25" value="Extend" style="edgeLabel;html=1;align=center;verticalAlign=middle;resizable=0;points=[];" vertex="1" connectable="0" parent="Wn_u3qL0JxrJ-TsmloJQ-24">
          <mxGeometry x="0.2677" y="2" relative="1" as="geometry">
            <mxPoint as="offset" />
          </mxGeometry>
        </mxCell>
        <mxCell id="Wn_u3qL0JxrJ-TsmloJQ-27" style="edgeStyle=orthogonalEdgeStyle;rounded=0;orthogonalLoop=1;jettySize=auto;html=1;dashed=1;dashPattern=8 8;" edge="1" parent="1" source="Wn_u3qL0JxrJ-TsmloJQ-6" target="Wn_u3qL0JxrJ-TsmloJQ-26">
          <mxGeometry relative="1" as="geometry" />
        </mxCell>
        <mxCell id="Wn_u3qL0JxrJ-TsmloJQ-28" value="Extend" style="edgeLabel;html=1;align=center;verticalAlign=middle;resizable=0;points=[];" vertex="1" connectable="0" parent="Wn_u3qL0JxrJ-TsmloJQ-27">
          <mxGeometry x="-0.007" relative="1" as="geometry">
            <mxPoint as="offset" />
          </mxGeometry>
        </mxCell>
        <mxCell id="Wn_u3qL0JxrJ-TsmloJQ-6" value="Login" style="ellipse;whiteSpace=wrap;html=1;" vertex="1" parent="1">
          <mxGeometry x="230" y="80" width="120" height="80" as="geometry" />
        </mxCell>
        <mxCell id="Wn_u3qL0JxrJ-TsmloJQ-14" value="Gestionar Usuaris" style="ellipse;whiteSpace=wrap;html=1;" vertex="1" parent="1">
          <mxGeometry x="390" y="-20" width="120" height="80" as="geometry" />
        </mxCell>
        <mxCell id="Wn_u3qL0JxrJ-TsmloJQ-21" style="edgeStyle=orthogonalEdgeStyle;rounded=0;orthogonalLoop=1;jettySize=auto;html=1;entryX=0;entryY=0.5;entryDx=0;entryDy=0;dashed=1;dashPattern=8 8;" edge="1" parent="1" source="Wn_u3qL0JxrJ-TsmloJQ-15" target="Wn_u3qL0JxrJ-TsmloJQ-20">
          <mxGeometry relative="1" as="geometry" />
        </mxCell>
        <mxCell id="Wn_u3qL0JxrJ-TsmloJQ-22" value="Include" style="edgeLabel;html=1;align=center;verticalAlign=middle;resizable=0;points=[];" vertex="1" connectable="0" parent="Wn_u3qL0JxrJ-TsmloJQ-21">
          <mxGeometry x="-0.5352" y="1" relative="1" as="geometry">
            <mxPoint as="offset" />
          </mxGeometry>
        </mxCell>
        <mxCell id="Wn_u3qL0JxrJ-TsmloJQ-15" value="Fichaje" style="ellipse;whiteSpace=wrap;html=1;" vertex="1" parent="1">
          <mxGeometry x="330" y="205" width="120" height="80" as="geometry" />
        </mxCell>
        <mxCell id="Wn_u3qL0JxrJ-TsmloJQ-18" style="edgeStyle=orthogonalEdgeStyle;rounded=0;orthogonalLoop=1;jettySize=auto;html=1;entryX=0;entryY=0.598;entryDx=0;entryDy=0;entryPerimeter=0;dashed=1;dashPattern=8 8;" edge="1" parent="1" source="Wn_u3qL0JxrJ-TsmloJQ-6" target="Wn_u3qL0JxrJ-TsmloJQ-15">
          <mxGeometry relative="1" as="geometry" />
        </mxCell>
        <mxCell id="Wn_u3qL0JxrJ-TsmloJQ-19" value="Extend" style="edgeLabel;html=1;align=center;verticalAlign=middle;resizable=0;points=[];" vertex="1" connectable="0" parent="Wn_u3qL0JxrJ-TsmloJQ-18">
          <mxGeometry x="-0.4066" relative="1" as="geometry">
            <mxPoint as="offset" />
          </mxGeometry>
        </mxCell>
        <mxCell id="Wn_u3qL0JxrJ-TsmloJQ-20" value="Horas Jornada Laboral" style="ellipse;whiteSpace=wrap;html=1;" vertex="1" parent="1">
          <mxGeometry x="440" y="300" width="120" height="80" as="geometry" />
        </mxCell>
        <mxCell id="Wn_u3qL0JxrJ-TsmloJQ-23" value="Subir Nominas" style="ellipse;whiteSpace=wrap;html=1;" vertex="1" parent="1">
          <mxGeometry x="500" y="50" width="120" height="80" as="geometry" />
        </mxCell>
        <mxCell id="Wn_u3qL0JxrJ-TsmloJQ-30" style="edgeStyle=orthogonalEdgeStyle;rounded=0;orthogonalLoop=1;jettySize=auto;html=1;entryX=0;entryY=0.5;entryDx=0;entryDy=0;dashed=1;dashPattern=8 8;" edge="1" parent="1" source="Wn_u3qL0JxrJ-TsmloJQ-26" target="Wn_u3qL0JxrJ-TsmloJQ-29">
          <mxGeometry relative="1" as="geometry" />
        </mxCell>
        <mxCell id="Wn_u3qL0JxrJ-TsmloJQ-31" value="Include" style="edgeLabel;html=1;align=center;verticalAlign=middle;resizable=0;points=[];" vertex="1" connectable="0" parent="Wn_u3qL0JxrJ-TsmloJQ-30">
          <mxGeometry x="-0.4967" y="-1" relative="1" as="geometry">
            <mxPoint as="offset" />
          </mxGeometry>
        </mxCell>
        <mxCell id="Wn_u3qL0JxrJ-TsmloJQ-26" value="Vacaciones" style="ellipse;whiteSpace=wrap;html=1;" vertex="1" parent="1">
          <mxGeometry x="500" y="160" width="120" height="80" as="geometry" />
        </mxCell>
        <mxCell id="Wn_u3qL0JxrJ-TsmloJQ-29" value="Max. 28 dias" style="ellipse;whiteSpace=wrap;html=1;" vertex="1" parent="1">
          <mxGeometry x="610" y="270" width="120" height="80" as="geometry" />
        </mxCell>
        <mxCell id="Wn_u3qL0JxrJ-TsmloJQ-39" style="edgeStyle=orthogonalEdgeStyle;rounded=0;orthogonalLoop=1;jettySize=auto;html=1;entryX=0;entryY=0.5;entryDx=0;entryDy=0;" edge="1" parent="1" source="Wn_u3qL0JxrJ-TsmloJQ-32" target="Wn_u3qL0JxrJ-TsmloJQ-33">
          <mxGeometry relative="1" as="geometry" />
        </mxCell>
        <mxCell id="Wn_u3qL0JxrJ-TsmloJQ-32" value="Usuario" style="shape=umlActor;verticalLabelPosition=bottom;verticalAlign=top;html=1;outlineConnect=0;" vertex="1" parent="1">
          <mxGeometry x="100" y="440" width="30" height="60" as="geometry" />
        </mxCell>
        <mxCell id="Wn_u3qL0JxrJ-TsmloJQ-41" style="edgeStyle=orthogonalEdgeStyle;rounded=0;orthogonalLoop=1;jettySize=auto;html=1;dashed=1;dashPattern=8 8;" edge="1" parent="1" source="Wn_u3qL0JxrJ-TsmloJQ-33" target="Wn_u3qL0JxrJ-TsmloJQ-36">
          <mxGeometry relative="1" as="geometry" />
        </mxCell>
        <mxCell id="Wn_u3qL0JxrJ-TsmloJQ-42" value="Extend" style="edgeLabel;html=1;align=center;verticalAlign=middle;resizable=0;points=[];" vertex="1" connectable="0" parent="Wn_u3qL0JxrJ-TsmloJQ-41">
          <mxGeometry x="0.4022" y="-2" relative="1" as="geometry">
            <mxPoint as="offset" />
          </mxGeometry>
        </mxCell>
        <mxCell id="Wn_u3qL0JxrJ-TsmloJQ-43" style="edgeStyle=orthogonalEdgeStyle;rounded=0;orthogonalLoop=1;jettySize=auto;html=1;dashed=1;dashPattern=8 8;" edge="1" parent="1" source="Wn_u3qL0JxrJ-TsmloJQ-33" target="Wn_u3qL0JxrJ-TsmloJQ-37">
          <mxGeometry relative="1" as="geometry" />
        </mxCell>
        <mxCell id="Wn_u3qL0JxrJ-TsmloJQ-44" value="Extend" style="edgeLabel;html=1;align=center;verticalAlign=middle;resizable=0;points=[];" vertex="1" connectable="0" parent="Wn_u3qL0JxrJ-TsmloJQ-43">
          <mxGeometry x="0.0243" y="-1" relative="1" as="geometry">
            <mxPoint as="offset" />
          </mxGeometry>
        </mxCell>
        <mxCell id="Wn_u3qL0JxrJ-TsmloJQ-47" style="edgeStyle=orthogonalEdgeStyle;rounded=0;orthogonalLoop=1;jettySize=auto;html=1;entryX=0;entryY=0.5;entryDx=0;entryDy=0;dashed=1;dashPattern=8 8;" edge="1" parent="1" source="Wn_u3qL0JxrJ-TsmloJQ-33" target="Wn_u3qL0JxrJ-TsmloJQ-34">
          <mxGeometry relative="1" as="geometry" />
        </mxCell>
        <mxCell id="Wn_u3qL0JxrJ-TsmloJQ-48" value="Extend" style="edgeLabel;html=1;align=center;verticalAlign=middle;resizable=0;points=[];" vertex="1" connectable="0" parent="Wn_u3qL0JxrJ-TsmloJQ-47">
          <mxGeometry x="-0.3472" y="-1" relative="1" as="geometry">
            <mxPoint as="offset" />
          </mxGeometry>
        </mxCell>
        <mxCell id="Wn_u3qL0JxrJ-TsmloJQ-33" value="Login" style="ellipse;whiteSpace=wrap;html=1;" vertex="1" parent="1">
          <mxGeometry x="210" y="430" width="120" height="80" as="geometry" />
        </mxCell>
        <mxCell id="Wn_u3qL0JxrJ-TsmloJQ-50" style="edgeStyle=orthogonalEdgeStyle;rounded=0;orthogonalLoop=1;jettySize=auto;html=1;entryX=0;entryY=0.5;entryDx=0;entryDy=0;dashed=1;dashPattern=8 8;" edge="1" parent="1" source="Wn_u3qL0JxrJ-TsmloJQ-34" target="Wn_u3qL0JxrJ-TsmloJQ-35">
          <mxGeometry relative="1" as="geometry" />
        </mxCell>
        <mxCell id="Wn_u3qL0JxrJ-TsmloJQ-51" value="Include" style="edgeLabel;html=1;align=center;verticalAlign=middle;resizable=0;points=[];" vertex="1" connectable="0" parent="Wn_u3qL0JxrJ-TsmloJQ-50">
          <mxGeometry x="-0.5848" y="-2" relative="1" as="geometry">
            <mxPoint as="offset" />
          </mxGeometry>
        </mxCell>
        <mxCell id="Wn_u3qL0JxrJ-TsmloJQ-34" value="Fichaje" style="ellipse;whiteSpace=wrap;html=1;" vertex="1" parent="1">
          <mxGeometry x="310" y="555" width="120" height="80" as="geometry" />
        </mxCell>
        <mxCell id="Wn_u3qL0JxrJ-TsmloJQ-35" value="Horas Jornada Laboral" style="ellipse;whiteSpace=wrap;html=1;" vertex="1" parent="1">
          <mxGeometry x="420" y="650" width="120" height="80" as="geometry" />
        </mxCell>
        <mxCell id="Wn_u3qL0JxrJ-TsmloJQ-36" value="Consultar Nominas" style="ellipse;whiteSpace=wrap;html=1;" vertex="1" parent="1">
          <mxGeometry x="480" y="400" width="120" height="80" as="geometry" />
        </mxCell>
        <mxCell id="Wn_u3qL0JxrJ-TsmloJQ-45" style="edgeStyle=orthogonalEdgeStyle;rounded=0;orthogonalLoop=1;jettySize=auto;html=1;entryX=0.5;entryY=0;entryDx=0;entryDy=0;dashed=1;dashPattern=8 8;" edge="1" parent="1" source="Wn_u3qL0JxrJ-TsmloJQ-37" target="Wn_u3qL0JxrJ-TsmloJQ-38">
          <mxGeometry relative="1" as="geometry" />
        </mxCell>
        <mxCell id="Wn_u3qL0JxrJ-TsmloJQ-46" value="Include" style="edgeLabel;html=1;align=center;verticalAlign=middle;resizable=0;points=[];" vertex="1" connectable="0" parent="Wn_u3qL0JxrJ-TsmloJQ-45">
          <mxGeometry x="0.3707" y="-1" relative="1" as="geometry">
            <mxPoint as="offset" />
          </mxGeometry>
        </mxCell>
        <mxCell id="Wn_u3qL0JxrJ-TsmloJQ-37" value="Vacaciones" style="ellipse;whiteSpace=wrap;html=1;" vertex="1" parent="1">
          <mxGeometry x="480" y="510" width="120" height="80" as="geometry" />
        </mxCell>
        <mxCell id="Wn_u3qL0JxrJ-TsmloJQ-38" value="Max. 28 dias" style="ellipse;whiteSpace=wrap;html=1;" vertex="1" parent="1">
          <mxGeometry x="610" y="630" width="120" height="80" as="geometry" />
        </mxCell>
        <mxCell id="Wn_u3qL0JxrJ-TsmloJQ-52" value="LaborX" style="text;html=1;align=center;verticalAlign=middle;whiteSpace=wrap;rounded=0;fontSize=25;fontStyle=1" vertex="1" parent="1">
          <mxGeometry x="200" y="-38" width="100" height="30" as="geometry" />
        </mxCell>
      </root>
    </mxGraphModel>
  </diagram>
</mxfile>
